<?xml version="1.0" encoding="utf-8"?>
<!-- Generator: Adobe Illustrator 27.5.0, SVG Export Plug-In . SVG Version: 6.00 Build 0)  -->
<svg version="1.1" xmlns="http://www.w3.org/2000/svg" xmlns:xlink="http://www.w3.org/1999/xlink" x="0px" y="0px"
	 viewBox="0 0 3710 3710" style="enable-background:new 0 0 3710 3710;" xml:space="preserve">
<g id="Background">
	<g>
		<g>
			<rect style="fill:#FFFFFF;" width="3710" height="3710"/>
		</g>
	</g>
</g>
<g id="Illustration">
	<g>
		<linearGradient id="SVGID_1_" gradientUnits="userSpaceOnUse" x1="3597.0532" y1="4024.7068" x2="1141.1715" y2="974.6558">
			<stop  offset="0" style="stop-color:#DAE3FE"/>
			<stop  offset="1" style="stop-color:#E9EFFD"/>
		</linearGradient>
		<path style="fill:url(#SVGID_1_);" d="M2926.628,2818.174c-56.851,59.409-110.643,97.721-153.144,127.991
			c-499.582,355.811-1090.719,252.094-1216.353,226.765c-185.521-37.402-544.13-109.7-803.397-412.344
			c-392.25-457.875-375.5-1211.142-26.915-1655.43c49.135-62.625,344.9-552.791,947.132-648.07
			c360.176-56.984,783.117,47.712,1088.366,301.562C3403.062,1291.504,3357.448,2367.967,2926.628,2818.174z"/>
		<g style="opacity:0.92;">
			<path style="fill:#7D97F4;" d="M1176.331,450.629c4.955-13.816,25.183-11.802,27.253,2.729
				c20.006,140.486,84.005,507.22,229.629,716.663c237.109,341.022,356.178,859.45,144.434,1091.644
				C1577.646,2261.665,636.436,1955.981,1176.331,450.629z"/>
			<path style="opacity:0.43;fill:#FFFFFF;" d="M1181.496,648.028c-0.062,3.541,0.135,7.599,0.24,11.463l0.528,11.723l1.313,23.448
				c0.952,15.631,2.021,31.257,3.157,46.878c2.356,31.237,5.1,62.444,8.129,93.62c5.996,62.36,13.186,124.602,21.58,186.675
				c17.009,124.104,37.864,247.713,65.023,369.965c13.819,61.057,28.203,122.004,44.998,182.311
				c16.851,60.274,35.002,120.205,55.654,179.283c2.422,7.441,5.083,14.796,7.797,22.132l8.043,22.045l8.047,22.046
				c2.773,7.314,5.74,14.552,8.598,21.832c5.851,14.507,11.364,29.158,17.491,43.551l18.63,43.077
				c25.545,57.126,53.829,113.016,85.248,167.204l0.01,0.016c0.466,0.803,0.19,1.831-0.61,2.296
				c-0.791,0.458-1.798,0.198-2.274-0.573c-32.915-53.472-62.056-109.202-88.707-166.072l-19.175-43.03
				c-6.307-14.379-12.001-29.016-18.033-43.514c-2.95-7.276-6.009-14.51-8.874-21.82l-8.316-22.034l-8.319-22.036
				c-2.803-7.334-5.556-14.689-8.066-22.127c-41.828-118.459-75.17-239.782-102.06-362.406l-9.842-46.041l-9.143-46.181
				c-3.157-15.373-5.769-30.848-8.664-46.269l-4.243-23.151l-3.938-23.204c-10.61-61.855-19.946-123.931-27.648-186.207
				c-7.768-62.266-14.548-124.653-19.729-187.181c-2.55-31.267-4.814-62.555-6.688-93.869c-0.886-15.66-1.756-31.322-2.409-46.996
				l-0.827-23.521l-0.282-11.773c-0.013-3.971-0.174-7.747,0.036-12.042c0.043-0.92,0.827-1.629,1.746-1.583
				c0.899,0.044,1.598,0.795,1.585,1.691L1181.496,648.028z"/>
		</g>
		<g>
			<path style="fill:#91B3FA;" d="M628.277,583.592c2.763-17.002,26.534-19.004,32.03-2.68
				c53.138,157.827,205.437,567.311,418.275,777.837c346.551,342.784,594.846,915.527,400.182,1228.751
				C1478.765,2587.5,327.312,2436.112,628.277,583.592z"/>
			<path style="opacity:0.43;fill:#FFFFFF;" d="M676.175,810.278c0.676,4.167,1.756,8.787,2.691,13.235l3.075,13.428l6.445,26.801
				c4.397,17.847,8.989,35.648,13.625,53.435c9.382,35.55,19.201,70.982,29.348,106.32c20.215,70.695,41.779,141.001,64.698,210.856
				c46.058,139.624,96.603,277.807,154.055,413.111c28.981,67.524,58.667,134.77,90.968,200.774
				c3.902,8.317,8.004,16.533,12.162,24.721l12.385,24.612l12.385,24.612c4.191,8.172,8.578,16.239,12.861,24.364
				c8.667,16.191,17.094,32.517,25.961,48.599l26.906,48.078c2.251,4.001,4.433,8.043,6.744,12.011l7.01,11.855l14.023,23.711
				l14.022,23.713c4.772,7.844,9.75,15.56,14.613,23.347l14.679,23.312c4.959,7.728,9.628,15.646,14.866,23.188l30.756,45.709
				c41.789,60.414,86.456,118.827,134.414,174.549l0.013,0.015c0.607,0.703,0.525,1.764-0.177,2.369
				c-0.692,0.596-1.733,0.527-2.343-0.149c-49.304-54.745-94.781-112.845-137.61-172.805l-31.281-45.563
				c-5.329-7.521-10.085-15.414-15.132-23.119l-14.942-23.246c-4.952-7.765-10.022-15.462-14.882-23.285l-14.288-23.652
				l-14.288-23.654l-7.144-11.828c-2.353-3.958-4.578-7.99-6.875-11.982c-73.542-127.736-137.889-260.594-195.158-396.301
				l-21.213-51.008l-20.438-51.317c-6.931-17.06-13.258-34.353-19.9-51.524l-9.855-25.8l-9.51-25.926
				c-25.482-69.091-49.55-138.705-71.819-208.888c-22.328-70.161-43.548-140.677-62.946-211.699
				c-9.651-35.523-18.975-71.133-27.855-106.856c-4.388-17.875-8.726-35.761-12.874-53.695l-6.074-26.939l-2.888-13.511
				c-0.876-4.567-1.887-8.911-2.57-13.844c-0.128-0.912,0.509-1.755,1.421-1.882c0.899-0.125,1.729,0.491,1.874,1.382
				L676.175,810.278z"/>
		</g>
		<g>
			<path style="fill:#7D97F4;" d="M1786.529,3102.047h1116.567c55.677,0,100.813-45.135,100.813-100.813V541.4
				c0-55.677-45.135-100.813-100.813-100.813H1786.529c-55.677,0-100.813,45.135-100.813,100.813v2459.835
				C1685.716,3056.912,1730.851,3102.047,1786.529,3102.047z"/>
			<path style="fill:#91B3FA;" d="M1661.999,3102.043h1116.567c55.677,0,100.813-45.135,100.813-100.813V541.396
				c0-55.678-45.135-100.813-100.813-100.813H1661.999c-55.677,0-100.813,45.135-100.813,100.813V3001.23
				C1561.186,3056.908,1606.322,3102.043,1661.999,3102.043z"/>
			<path style="fill:#BDD0FB;" d="M1697.16,1968.946h1055.368c48.254,0,87.371-39.117,87.371-87.371V554.309
				c0-48.254-39.117-87.371-87.371-87.371H1697.16c-48.254,0-87.371,39.117-87.371,87.371v1327.266
				C1609.789,1929.829,1648.906,1968.946,1697.16,1968.946z"/>
			<path style="fill:#BDD0FB;" d="M1694.117,3075.692h1055.368c48.254,0,87.371-39.117,87.371-87.371v-915.534
				c0-48.254-39.117-87.371-87.371-87.371H1694.117c-48.254,0-87.371,39.117-87.371,87.371v915.534
				C1606.746,3036.575,1645.863,3075.692,1694.117,3075.692z"/>
			<path style="fill:#7D97F4;" d="M1719.276,1600.031L1719.276,1600.031c21.83,0,39.527-17.697,39.527-39.527V928.078
				c0-21.83-17.697-39.527-39.527-39.527h0c-21.83,0-39.527,17.697-39.527,39.527v632.426
				C1679.749,1582.334,1697.446,1600.031,1719.276,1600.031z"/>
			<path style="fill:#7D97F4;" d="M1712.715,2548.67L1712.715,2548.67c21.83,0,39.527-17.697,39.527-39.527v-385.385
				c0-21.83-17.697-39.527-39.527-39.527l0,0c-21.83,0-39.527,17.697-39.527,39.527v385.385
				C1673.189,2530.973,1690.885,2548.67,1712.715,2548.67z"/>
		</g>
		<g>
			
				<linearGradient id="SVGID_00000183234484899343078680000001569987692885953714_" gradientUnits="userSpaceOnUse" x1="500.6193" y1="3700.1274" x2="1587.0387" y2="1466.2585">
				<stop  offset="0" style="stop-color:#4F52FF"/>
				<stop  offset="1" style="stop-color:#4042E2"/>
			</linearGradient>
			<path style="fill:url(#SVGID_00000183234484899343078680000001569987692885953714_);" d="M539.966,1840.595l86.594,1279.78
				c1.763,26.059,23.416,46.296,49.535,46.296h925.222c25.777,0,47.266-19.727,49.467-45.41l109.723-1280.73
				c2.378-27.753-18.531-52.003-46.328-53.793c-343.796-22.138-723.672-18.895-1127.083,0.904
				C559.344,1789.006,538.09,1812.873,539.966,1840.595z"/>
			
				<linearGradient id="SVGID_00000071523810688474382020000003830738909337903280_" gradientUnits="userSpaceOnUse" x1="1142.5228" y1="2003.4156" x2="1138.042" y2="1385.0962">
				<stop  offset="0" style="stop-color:#4F52FF"/>
				<stop  offset="1" style="stop-color:#4042E2"/>
			</linearGradient>
			<path style="fill:url(#SVGID_00000071523810688474382020000003830738909337903280_);" d="M701.673,2048.659h883.496
				c46.013,0,82.229,39.272,78.51,85.134l-64.355,793.649c-3.306,40.765-37.261,72.219-78.16,72.4l-751.216,3.335
				c-41.043,0.182-75.347-31.183-78.833-72.078l-67.925-796.983C619.271,2088.141,655.532,2048.659,701.673,2048.659z"/>
			<path style="fill:#7D97F4;" d="M1682.671,2007.283H594.025c-4.174,0-7.901-2.616-9.318-6.542l0,0
				c-2.333-6.458,2.452-13.273,9.318-13.273h1088.646c7.999,0,12.7,8.99,8.137,15.559l0,0
				C1688.957,2005.693,1685.917,2007.283,1682.671,2007.283z"/>
			<path style="fill:#7D97F4;" d="M603.099,1841.155l7.93,108.866c0.385,5.278,4.779,9.363,10.07,9.363h234.117
				c5.453,0,9.921-4.33,10.092-9.78l3.594-114.536c0.182-5.789-4.534-10.544-10.325-10.411l-245.641,5.67
				C607.165,1830.461,602.68,1835.398,603.099,1841.155z"/>
			<path style="fill:#7D97F4;" d="M1333.353,1878.262l4.211,71.759c0.385,5.278,4.778,9.363,10.07,9.363h299.258
				c5.453,0,9.921-4.33,10.092-9.78l7.313-77.429c0.182-5.789-4.534-10.544-10.325-10.411l-310.783,5.67
				C1337.419,1867.568,1332.933,1872.505,1333.353,1878.262z"/>
			
				<ellipse transform="matrix(0.2298 -0.9732 0.9732 0.2298 -1066.8593 2438.085)" style="fill:#7D97F4;" cx="1006.897" cy="1893.06" rx="66.325" ry="66.325"/>
			<circle style="fill:#BDD0FB;" cx="1013.75" cy="1886.207" r="47.112"/>
			
				<ellipse transform="matrix(0.7071 -0.7071 0.7071 0.7071 -988.1398 1400.5392)" style="fill:#7D97F4;" cx="1196.531" cy="1893.06" rx="66.325" ry="66.325"/>
			<circle style="fill:#BDD0FB;" cx="1203.384" cy="1886.207" r="47.112"/>
			
				<linearGradient id="SVGID_00000083796029659760662430000010005811568504896435_" gradientUnits="userSpaceOnUse" x1="1267.7251" y1="2479.8113" x2="1395.6462" y2="1662.4192">
				<stop  offset="0" style="stop-color:#4F52FF"/>
				<stop  offset="1" style="stop-color:#4042E2"/>
			</linearGradient>
			<path style="fill:url(#SVGID_00000083796029659760662430000010005811568504896435_);" d="M1399.994,1849.359h-62.512
				c-2.295,0-4.155-1.86-4.155-4.155v-21.683c0-2.295,1.86-4.156,4.156-4.156h62.512c2.295,0,4.155,1.86,4.155,4.155v21.683
				C1404.149,1847.499,1402.288,1849.359,1399.994,1849.359z"/>
			
				<linearGradient id="SVGID_00000000218932156327627220000002718260223515980181_" gradientUnits="userSpaceOnUse" x1="1351.3721" y1="2493.7861" x2="1479.2935" y2="1676.3934">
				<stop  offset="0" style="stop-color:#4F52FF"/>
				<stop  offset="1" style="stop-color:#4042E2"/>
			</linearGradient>
			<path style="fill:url(#SVGID_00000000218932156327627220000002718260223515980181_);" d="M1485.828,1849.359h-62.513
				c-2.295,0-4.156-1.86-4.156-4.155v-21.683c0-2.295,1.86-4.156,4.156-4.156h62.513c2.295,0,4.155,1.86,4.155,4.155v21.683
				C1489.983,1847.499,1488.123,1849.359,1485.828,1849.359z"/>
			
				<linearGradient id="SVGID_00000044865354878185509570000005731241709024365232_" gradientUnits="userSpaceOnUse" x1="1437.6035" y1="2508.1882" x2="1565.5248" y2="1690.7961">
				<stop  offset="0" style="stop-color:#4F52FF"/>
				<stop  offset="1" style="stop-color:#4042E2"/>
			</linearGradient>
			<path style="fill:url(#SVGID_00000044865354878185509570000005731241709024365232_);" d="M1574.313,1849.359h-62.512
				c-2.295,0-4.155-1.86-4.155-4.155v-21.683c0-2.295,1.86-4.156,4.156-4.156h62.512c2.295,0,4.155,1.86,4.155,4.155v21.683
				C1578.468,1847.499,1576.608,1849.359,1574.313,1849.359z"/>
			
				<linearGradient id="SVGID_00000093156805573330384160000004714556693546756508_" gradientUnits="userSpaceOnUse" x1="1521.2507" y1="2522.1626" x2="1649.172" y2="1704.7705">
				<stop  offset="0" style="stop-color:#4F52FF"/>
				<stop  offset="1" style="stop-color:#4042E2"/>
			</linearGradient>
			<path style="fill:url(#SVGID_00000093156805573330384160000004714556693546756508_);" d="M1660.147,1849.359h-62.512
				c-2.295,0-4.155-1.86-4.155-4.155v-21.683c0-2.295,1.861-4.156,4.156-4.156h62.512c2.295,0,4.155,1.86,4.155,4.155v21.683
				C1664.302,1847.499,1662.442,1849.359,1660.147,1849.359z"/>
			<path style="opacity:0.5;fill:#FFFFFF;" d="M1604.847,3042.009H673.572c-3.398,0-6.153-2.755-6.153-6.153l0,0
				c0-3.398,2.755-6.153,15.667-6.153h931.275c-6.116,0-3.361,2.755-3.361,6.153l0,0
				C1611,3039.254,1608.245,3042.009,1604.847,3042.009z"/>
			<g>
				<circle style="fill:#7D97F4;" cx="1139.169" cy="2515.228" r="359.645"/>
				
					<linearGradient id="SVGID_00000132802288686219831820000016198615010159109270_" gradientUnits="userSpaceOnUse" x1="1505.9969" y1="2303.0188" x2="932.4346" y2="2632.4402">
					<stop  offset="0" style="stop-color:#09005D"/>
					<stop  offset="1" style="stop-color:#1A0F91"/>
				</linearGradient>
				
					<circle style="fill:url(#SVGID_00000132802288686219831820000016198615010159109270_);" cx="1142.749" cy="2511.647" r="292.371"/>
				
					<linearGradient id="SVGID_00000056428959431720370820000006965523453642072453_" gradientUnits="userSpaceOnUse" x1="1602.2502" y1="1742.4827" x2="1499.197" y2="1914.9847">
					<stop  offset="0" style="stop-color:#4F52FF"/>
					<stop  offset="1" style="stop-color:#4042E2"/>
				</linearGradient>
				
					<circle style="fill:url(#SVGID_00000056428959431720370820000006965523453642072453_);" cx="1142.749" cy="2511.647" r="275.513"/>
				
					<linearGradient id="SVGID_00000056420355833935054670000001683517537152635534_" gradientUnits="userSpaceOnUse" x1="1519.3623" y1="1882.0065" x2="713.7479" y2="3722.1057">
					<stop  offset="0" style="stop-color:#09005D"/>
					<stop  offset="1" style="stop-color:#1A0F91"/>
				</linearGradient>
				<path style="opacity:0.57;fill:url(#SVGID_00000056420355833935054670000001683517537152635534_);" d="M1249.532,2282.321
					c-21.943-12.411-49.978-9.727-67.65,8.252c-28.088,28.575-58.362,79.112-25.61,149.165
					c49.311,105.468,39.623,274.349-62.553,319.097c0,0,247.608,28.325,295.34-210.209
					C1420.165,2393.175,1304.201,2313.241,1249.532,2282.321z"/>
			</g>
			<path style="opacity:0.53;fill:#FFFFFF;" d="M1097.633,2302.338c-7.663,0.18-15.181,1.967-22.194,4.978
				c-7.039,2.944-13.671,6.896-19.89,11.444c-6.232,4.54-12.132,9.576-17.773,14.964c-5.713,5.304-11.197,10.843-16.445,16.578
				c-21.144,22.792-38.766,48.746-51.443,76.818c-12.526,28.076-20.202,58.388-20.632,88.847
				c-0.459,30.438,5.484,61.098,18.282,88.605c12.661,27.505,32.147,51.85,57.308,68.557c24.967,16.961,54.715,26.8,84.907,29.04
				c15.119,1.073,30.326,0.136,45.254-2.596c14.896-2.901,29.525-7.423,43.4-13.716c27.746-12.528,52.848-31.314,72.492-54.586
				c19.585-23.198,33.932-51.332,38.067-81.11c2.166-14.845,1.441-29.955-1.946-44.452c-1.913-7.197-4.132-14.37-7.377-21.138
				c-1.414-3.475-3.36-6.699-5.067-10.039c-1.979-3.187-3.81-6.481-6.032-9.515c-17.019-24.85-43.062-43.438-72.298-50.875
				c-29.309-7.315-61.203-4.511-89.196,7.474c-6.987,3.006-13.806,6.457-20.195,10.588c-6.494,3.973-12.539,8.646-18.2,13.706
				c-11.312,10.129-20.743,22.369-26.936,36.063c-6.343,13.648-8.733,28.862-6.708,43.737c1.943,14.813,8.483,29.133,19.152,39.425
				c10.698,10.229,25.682,15.596,40.712,15.612c15.017-0.01,30.221-4.965,41.868-14.594c5.789-4.786,10.675-10.71,13.494-17.526
				c2.885-6.732,3.259-14.492,0.991-21.443c-2.205-6.939-7.525-12.859-14.626-14.521c-6.921-1.836-15.171,0.033-19.47,5.822
				c-0.548,0.75-1.598,0.912-2.35,0.365c-0.742-0.543-0.899-1.59-0.371-2.337c2.553-3.544,6.33-6.105,10.446-7.328
				c4.105-1.232,8.516-1.383,12.684-0.391c4.178,0.901,8.171,3.093,11.253,6.107c3.065,3.034,5.359,6.77,6.783,10.775
				c2.858,7.992,2.632,17.007-0.486,24.883c-3.062,7.892-8.441,14.579-14.676,19.951c-12.556,10.79-29.01,16.528-45.497,16.861
				c-16.461,0.318-33.447-5.265-45.904-16.715c-12.362-11.46-19.907-27.353-22.391-43.717c-2.599-16.384-0.203-33.634,6.491-48.756
				c6.586-15.217,16.76-28.595,28.797-39.662c6.035-5.529,12.477-10.623,19.395-14.98c6.819-4.517,14.088-8.313,21.554-11.628
				c29.893-13.2,64.101-16.725,96.209-9.128c32.147,7.763,61,27.833,79.981,54.863c2.474,3.311,4.552,6.903,6.76,10.396
				c1.943,3.655,4.109,7.198,5.736,11.02c3.662,7.448,6.258,15.388,8.473,23.403c4.04,16.184,4.981,33.15,2.606,49.561
				c-2.107,16.478-7.361,32.316-14.282,47.191c-7.157,14.774-16.044,28.664-26.598,41.154c-21,25.057-47.63,45.148-77.352,58.726
				c-14.853,6.805-30.569,11.747-46.642,14.937c-16.103,3.022-32.653,4.105-49.035,3.004c-32.735-2.302-65.007-12.799-92.405-31.237
				c-27.609-18.221-49.304-44.9-62.897-74.729c-13.596-29.901-20.025-62.823-18.952-95.474c1.073-32.736,9.704-64.818,23.881-93.879
				c14.078-29.152,33.562-55.364,56.396-77.831c5.733-5.597,11.686-10.962,17.842-16.066c6.078-5.178,12.5-10.07,19.29-14.453
				c6.783-4.376,14.023-8.219,21.744-10.879c7.722-2.645,15.955-3.952,24.097-3.517c0.925,0.049,1.638,0.841,1.588,1.768
				c-0.049,0.882-0.765,1.568-1.634,1.591L1097.633,2302.338z"/>
		</g>
		<g>
			
				<linearGradient id="SVGID_00000161629083570954248950000013216891974052661641_" gradientUnits="userSpaceOnUse" x1="1221.9877" y1="3026.6707" x2="3247.0984" y2="2072.5342">
				<stop  offset="0" style="stop-color:#09005D"/>
				<stop  offset="1" style="stop-color:#1A0F91"/>
			</linearGradient>
			<path style="fill:url(#SVGID_00000161629083570954248950000013216891974052661641_);" d="M2137.452,3213.567H1005.581v-688.696
				c0-12.585,10.202-22.787,22.787-22.787h1087.54c11.898,0,21.544,9.646,21.544,21.544V3213.567z"/>
			
				<linearGradient id="SVGID_00000125574833519653569360000004053206908641107641_" gradientUnits="userSpaceOnUse" x1="1776.9855" y1="2247.8711" x2="1076.1302" y2="3582.8318">
				<stop  offset="0" style="stop-color:#FF928E"/>
				<stop  offset="1" style="stop-color:#FE7062"/>
			</linearGradient>
			<path style="fill:url(#SVGID_00000125574833519653569360000004053206908641107641_);" d="M1849.981,3158.313h-802.367
				c-4.79,0-8.673-3.883-8.673-8.673V2596.34c0-4.79,3.883-8.673,8.673-8.673h802.367c4.79,0,8.673,3.883,8.673,8.673v553.301
				C1858.654,3154.43,1854.771,3158.313,1849.981,3158.313z"/>
			
				<linearGradient id="SVGID_00000083065927746580090330000008694137987608295598_" gradientUnits="userSpaceOnUse" x1="1548.7067" y1="1984.5514" x2="2289.1252" y2="3380.501">
				<stop  offset="0" style="stop-color:#09005D"/>
				<stop  offset="1" style="stop-color:#1A0F91"/>
			</linearGradient>
			<path style="fill:url(#SVGID_00000083065927746580090330000008694137987608295598_);" d="M2137.452,3213.567h-240.672v-711.484
				h214.451c14.481,0,26.22,11.74,26.22,26.221V3213.567z"/>
			
				<linearGradient id="SVGID_00000115493759428331804760000003733754834356666531_" gradientUnits="userSpaceOnUse" x1="1594.3783" y1="2420.9136" x2="1937.4613" y2="3067.7458">
				<stop  offset="0" style="stop-color:#E1473D"/>
				<stop  offset="1" style="stop-color:#E9605A"/>
			</linearGradient>
			<path style="fill:url(#SVGID_00000115493759428331804760000003733754834356666531_);" d="M1853.336,3072.529h-25.107
				c-2.925,0-5.318-2.393-5.318-5.318v-363.477c0-2.925,2.393-5.318,5.318-5.318h25.107c2.925,0,5.318,2.393,5.318,5.318v363.477
				C1858.654,3070.136,1856.261,3072.529,1853.336,3072.529z"/>
			
				<linearGradient id="SVGID_00000026864028788198969530000013062521067460478616_" gradientUnits="userSpaceOnUse" x1="2191.4988" y1="2820.8511" x2="1488.8262" y2="2061.3662">
				<stop  offset="0" style="stop-color:#4F52FF"/>
				<stop  offset="1" style="stop-color:#4042E2"/>
			</linearGradient>
			<path style="opacity:0.43;fill:url(#SVGID_00000026864028788198969530000013062521067460478616_);" d="M2094.941,2676.97
				h-172.329c-5.054,0-9.151-4.097-9.151-9.151v-88.928c0-5.054,4.097-9.151,9.151-9.151h172.329c5.054,0,9.151,4.097,9.151,9.151
				v88.928C2104.092,2672.873,2099.995,2676.97,2094.941,2676.97z"/>
			
				<linearGradient id="SVGID_00000116926493037193960830000004343195943070237312_" gradientUnits="userSpaceOnUse" x1="2447.6306" y1="3621.1758" x2="1841.6088" y2="2919.9221">
				<stop  offset="0" style="stop-color:#4F52FF"/>
				<stop  offset="1" style="stop-color:#4042E2"/>
			</linearGradient>
			
				<circle style="opacity:0.47;fill:url(#SVGID_00000116926493037193960830000004343195943070237312_);" cx="2007.704" cy="3112.118" r="71.036"/>
			
				<linearGradient id="SVGID_00000134218104440562984800000016125287196022281096_" gradientUnits="userSpaceOnUse" x1="2338.0146" y1="3493.0938" x2="1855.4598" y2="2934.709">
				<stop  offset="0" style="stop-color:#4F52FF"/>
				<stop  offset="1" style="stop-color:#4042E2"/>
			</linearGradient>
			
				<circle style="opacity:0.43;fill:url(#SVGID_00000134218104440562984800000016125287196022281096_);" cx="2008.776" cy="3112.118" r="56.564"/>
			<g style="opacity:0.43;">
				
					<linearGradient id="SVGID_00000133488730640469449600000006651962601710183847_" gradientUnits="userSpaceOnUse" x1="1856.1887" y1="2467.9231" x2="2175.5681" y2="3250.98">
					<stop  offset="0" style="stop-color:#4F52FF"/>
					<stop  offset="1" style="stop-color:#4042E2"/>
				</linearGradient>
				
					<circle style="fill:url(#SVGID_00000133488730640469449600000006651962601710183847_);" cx="1973.155" cy="2754.703" r="20.998"/>
				
					<linearGradient id="SVGID_00000040549099316668469490000005812779772863889334_" gradientUnits="userSpaceOnUse" x1="1912.267" y1="2445.0505" x2="2231.6465" y2="3228.1077">
					<stop  offset="0" style="stop-color:#4F52FF"/>
					<stop  offset="1" style="stop-color:#4042E2"/>
				</linearGradient>
				
					<circle style="fill:url(#SVGID_00000040549099316668469490000005812779772863889334_);" cx="2038.562" cy="2754.703" r="20.998"/>
				
					<linearGradient id="SVGID_00000027594793066290903490000016673965962647632768_" gradientUnits="userSpaceOnUse" x1="1830.7737" y1="2478.2886" x2="2150.1531" y2="3261.3455">
					<stop  offset="0" style="stop-color:#4F52FF"/>
					<stop  offset="1" style="stop-color:#4042E2"/>
				</linearGradient>
				
					<circle style="fill:url(#SVGID_00000027594793066290903490000016673965962647632768_);" cx="1973.155" cy="2827.381" r="20.998"/>
				
					<linearGradient id="SVGID_00000010993197738401156310000003685076306017358980_" gradientUnits="userSpaceOnUse" x1="1886.8521" y1="2455.4165" x2="2206.2317" y2="3238.4734">
					<stop  offset="0" style="stop-color:#4F52FF"/>
					<stop  offset="1" style="stop-color:#4042E2"/>
				</linearGradient>
				
					<circle style="fill:url(#SVGID_00000010993197738401156310000003685076306017358980_);" cx="2038.562" cy="2827.381" r="20.998"/>
				
					<linearGradient id="SVGID_00000023252754873042195160000015871938458796285867_" gradientUnits="userSpaceOnUse" x1="1804.7131" y1="2488.9158" x2="2124.0928" y2="3271.9729">
					<stop  offset="0" style="stop-color:#4F52FF"/>
					<stop  offset="1" style="stop-color:#4042E2"/>
				</linearGradient>
				
					<circle style="fill:url(#SVGID_00000023252754873042195160000015871938458796285867_);" cx="1974.347" cy="2904.825" r="20.998"/>
				
					<linearGradient id="SVGID_00000038402168342089436600000016274362292578235316_" gradientUnits="userSpaceOnUse" x1="1860.7919" y1="2466.0447" x2="2180.1714" y2="3249.1016">
					<stop  offset="0" style="stop-color:#4F52FF"/>
					<stop  offset="1" style="stop-color:#4042E2"/>
				</linearGradient>
				
					<circle style="fill:url(#SVGID_00000038402168342089436600000016274362292578235316_);" cx="2039.754" cy="2904.825" r="20.998"/>
				
					<linearGradient id="SVGID_00000141435238732847432280000013834664348895855280_" gradientUnits="userSpaceOnUse" x1="1781.4773" y1="2498.3933" x2="2100.8569" y2="3281.4504">
					<stop  offset="0" style="stop-color:#4F52FF"/>
					<stop  offset="1" style="stop-color:#4042E2"/>
				</linearGradient>
				
					<circle style="fill:url(#SVGID_00000141435238732847432280000013834664348895855280_);" cx="1977.86" cy="2979.886" r="20.998"/>
				
					<linearGradient id="SVGID_00000060714595886236142800000000792816666045084069_" gradientUnits="userSpaceOnUse" x1="1837.556" y1="2475.522" x2="2156.9355" y2="3258.5793">
					<stop  offset="0" style="stop-color:#4F52FF"/>
					<stop  offset="1" style="stop-color:#4042E2"/>
				</linearGradient>
				
					<circle style="fill:url(#SVGID_00000060714595886236142800000000792816666045084069_);" cx="2043.267" cy="2979.886" r="20.998"/>
			</g>
			<g>
				<defs>
					
						<rect id="SVGID_00000161608868402440858940000007945027134334427571_" x="1038.941" y="2587.667" width="819.713" height="570.646"/>
				</defs>
				<clipPath id="SVGID_00000099663902956265532910000016644093012554008509_">
					<use xlink:href="#SVGID_00000161608868402440858940000007945027134334427571_"  style="overflow:visible;"/>
				</clipPath>
				
					<rect x="1159.29" y="2217.686" transform="matrix(0.866 0.5 -0.5 0.866 1535.1815 -219.9666)" style="opacity:0.06;clip-path:url(#SVGID_00000099663902956265532910000016644093012554008509_);fill:#FFFFFF;" width="37.529" height="1074.033"/>
				
					<rect x="1537.26" y="2348.456" transform="matrix(0.866 0.5 -0.5 0.866 1651.2006 -391.4321)" style="opacity:0.11;clip-path:url(#SVGID_00000099663902956265532910000016644093012554008509_);fill:#FFFFFF;" width="37.529" height="1074.033"/>
				
					<rect x="1285.396" y="2319.699" transform="matrix(0.866 0.5 -0.5 0.866 1607.4326 -285.5861)" style="opacity:0.14;clip-path:url(#SVGID_00000099663902956265532910000016644093012554008509_);fill:#FFFFFF;" width="102.461" height="1074.033"/>
			</g>
		</g>
		<g>
			
				<linearGradient id="SVGID_00000165194466979179895740000006386597532238082229_" gradientUnits="userSpaceOnUse" x1="-3252.446" y1="1497.1814" x2="-3326.9714" y2="2226.9031" gradientTransform="matrix(-1 0 0 1 -240.0142 0)">
				<stop  offset="0" style="stop-color:#FEBBBA"/>
				<stop  offset="1" style="stop-color:#FF928E"/>
			</linearGradient>
			<path style="fill:url(#SVGID_00000165194466979179895740000006386597532238082229_);" d="M3058.69,2068.441
				c12.251-32.572,17.539-71.313,9.48-116.49c49.467-8.609,95.62-26.25,136.116-54.329c4.814,69.532-13.649,146.313-77.675,222.468
				l0,0c-31.083,36.97-72.893,73.794-127.998,109.566l-16.231,34.65l-48.764-60.74
				C2933.617,2203.567,3023.984,2160.705,3058.69,2068.441z"/>
			<g>
				
					<linearGradient id="SVGID_00000071557816282365913120000009082075984295287434_" gradientUnits="userSpaceOnUse" x1="-2680.8071" y1="1785.531" x2="-2761.6438" y2="2577.0537" gradientTransform="matrix(-1 0 0 1 -240.0142 0)">
					<stop  offset="0" style="stop-color:#FEBBBA"/>
					<stop  offset="1" style="stop-color:#FF928E"/>
				</linearGradient>
				<path style="fill:url(#SVGID_00000071557816282365913120000009082075984295287434_);" d="M2372.644,1765.874
					c49.991,8.755,93.751,2.216,132.415-12.126c1.019,8.588,2.468,17.221,4.473,25.91c8.448,38.016,20.083,74.835,36.397,108.777
					c-74.908,11.075-142.558-10.658-192.991-36.592C2352.238,1816.666,2361.844,1787.419,2372.644,1765.874z"/>
				
					<linearGradient id="SVGID_00000106139537416796373970000006838686725623634063_" gradientUnits="userSpaceOnUse" x1="6535.7695" y1="-12861.9873" x2="6240.0518" y2="-12404.9678" gradientTransform="matrix(-1 0 0 1 -240.0142 0)">
					<stop  offset="0" style="stop-color:#FF928E"/>
					<stop  offset="1" style="stop-color:#FE7062"/>
				</linearGradient>
				<path style="fill:url(#SVGID_00000106139537416796373970000006838686725623634063_);" d="M2505.059,1753.748
					c64.946-24.09,115.51-70.204,157.045-102.888c87.486-68.841,153.883-33.293,153.883-33.293l-95.317,180.258
					c-59.537,56.099-119.138,82.389-174.741,90.61c-16.314-33.942-27.949-70.761-36.397-108.777
					C2507.527,1770.97,2506.077,1762.337,2505.059,1753.748z"/>
				
					<linearGradient id="SVGID_00000095320973333614519070000016827504654025309601_" gradientUnits="userSpaceOnUse" x1="-3419.1592" y1="1372.385" x2="-4049.1594" y2="2178.415" gradientTransform="matrix(-0.9998 -0.0189 -0.0189 0.9998 -1343.8102 -2.4894)">
					<stop  offset="0" style="stop-color:#FEBBBA"/>
					<stop  offset="1" style="stop-color:#FF928E"/>
				</linearGradient>
				<path style="fill:url(#SVGID_00000095320973333614519070000016827504654025309601_);" d="M2185.373,1679.115l44.087,25.726
					c52.798,34.776,100.279,53.521,143.184,61.033c-10.8,21.545-20.406,50.792-19.705,85.969
					c-55.935-28.762-90.703-62.674-90.703-62.674C2162.479,1724.797,2185.373,1679.115,2185.373,1679.115z"/>
			</g>
			<g>
				
					<linearGradient id="SVGID_00000157268943190028734510000016025926285351740037_" gradientUnits="userSpaceOnUse" x1="9507.5635" y1="-13430.1836" x2="9279.0547" y2="-13134.4668" gradientTransform="matrix(-1 0 0 1 -240.0142 0)">
					<stop  offset="0" style="stop-color:#4F52FF"/>
					<stop  offset="1" style="stop-color:#4042E2"/>
				</linearGradient>
				<path style="fill:url(#SVGID_00000157268943190028734510000016025926285351740037_);" d="M2685.07,2926.169L2325.3,1415.53
					l-153.986,29.718l228.224,1536.028c0.509,3.425,1.093,6.844,1.75,10.245l9.917,51.384
					c17.017,88.173,79.005,150.349,138.457,138.876l70.679-13.641c59.453-11.474,93.852-92.252,76.834-180.426l-9.917-51.384
					C2686.602,2932.928,2685.871,2929.538,2685.07,2926.169z M2566.693,3080.086c-39.446,7.614-81.809-40.031-94.621-106.415
					c-12.812-66.384,8.779-126.371,48.225-133.984c39.445-7.612,81.807,40.032,94.618,106.416
					C2627.727,3012.487,2606.138,3072.473,2566.693,3080.086z"/>
				
					<linearGradient id="SVGID_00000093896023861719835580000008893775612474871993_" gradientUnits="userSpaceOnUse" x1="9089.5166" y1="-13753.2793" x2="8861.0078" y2="-13457.5615" gradientTransform="matrix(-1 0 0 1 -240.0142 0)">
					<stop  offset="0" style="stop-color:#4F52FF"/>
					<stop  offset="1" style="stop-color:#4042E2"/>
				</linearGradient>
				<path style="fill:url(#SVGID_00000093896023861719835580000008893775612474871993_);" d="M2302.469,879.961l57.542,298.151
					c4.098,21.228-1.891,43.155-16.21,59.355l-73.396,83.038c-20.95,23.702-55.237,30.319-83.504,16.116l-99.024-49.763
					c-19.318-9.708-33.037-27.832-37.134-49.061l-57.542-298.15c-8.679-44.971-66.656-59.467-94.633-23.203
					c-66.929,86.753-97.651,202.779-74.756,321.406c41.381,214.413,237.035,329.643,443.271,289.84s344.958-219.566,303.578-433.978
					c-22.895-118.628-94.586-214.889-188.991-270.506C2342.209,799.961,2293.791,834.989,2302.469,879.961z"/>
				
					<linearGradient id="SVGID_00000151528149447196407340000013492632717022455195_" gradientUnits="userSpaceOnUse" x1="-2509.0522" y1="1409.7368" x2="-3940.0378" y2="4831.1885" gradientTransform="matrix(-1 0 0 1 -240.0142 0)">
					<stop  offset="0" style="stop-color:#4F52FF"/>
					<stop  offset="1" style="stop-color:#4042E2"/>
				</linearGradient>
				<path style="fill:url(#SVGID_00000151528149447196407340000013492632717022455195_);" d="M2274.372,885.384l57.541,298.15
					c4.097,21.229-1.891,43.156-16.209,59.355l-73.398,83.039c-20.949,23.703-55.236,30.32-83.501,16.115l-99.025-49.762
					c-19.318-9.707-33.036-27.832-37.134-49.059l-57.542-298.151c-8.679-44.972-66.655-59.467-94.633-23.205
					c-66.929,86.754-97.65,202.779-74.756,321.408c41.381,214.413,237.035,329.642,443.271,289.84
					c206.236-39.803,344.958-219.566,303.578-433.979c-22.895-118.628-94.587-214.888-188.993-270.504
					C2314.108,805.383,2265.69,840.412,2274.372,885.384z"/>
				
					<linearGradient id="SVGID_00000030476193415186997400000006468376543715832203_" gradientUnits="userSpaceOnUse" x1="1886.0371" y1="2268.2632" x2="205.8218" y2="2154.009">
					<stop  offset="0" style="stop-color:#4F52FF"/>
					<stop  offset="1" style="stop-color:#4042E2"/>
				</linearGradient>
				<path style="fill:url(#SVGID_00000030476193415186997400000006468376543715832203_);" d="M2662.655,2930.495l-359.77-1510.64
					l-153.984,29.718l228.223,1536.027c0.509,3.425,1.093,6.844,1.75,10.245l9.917,51.384
					c17.017,88.174,79.005,150.349,138.458,138.876l70.679-13.641c59.451-11.473,93.85-92.252,76.833-180.426l-9.917-51.384
					C2664.188,2937.254,2663.456,2933.864,2662.655,2930.495z M2544.278,3084.412c-39.445,7.612-81.807-40.031-94.62-106.415
					c-12.812-66.386,8.78-126.371,48.224-133.985c39.446-7.613,81.808,40.032,94.619,106.416
					C2605.313,3016.813,2583.724,3076.799,2544.278,3084.412z"/>
			</g>
			
				<linearGradient id="SVGID_00000044135285408438856060000005042130056549307038_" gradientUnits="userSpaceOnUse" x1="2488.3901" y1="1619.1066" x2="3325.0955" y2="1155.3895">
				<stop  offset="0" style="stop-color:#FEBBBA"/>
				<stop  offset="1" style="stop-color:#FF928E"/>
			</linearGradient>
			<path style="fill:url(#SVGID_00000044135285408438856060000005042130056549307038_);" d="M2179.625,1745.61
				c-1.64-9.632,1.177-19.41,7.566-26.801c12.382-14.323,33.775-33.948,49.291-20.721c23.108,19.7-2.213,87.074-2.213,87.074
				l-25.62,39.127l-0.361,24.972C2194.427,1833.031,2186.138,1793.105,2179.625,1745.61z"/>
			<path style="fill:#7D97F4;" d="M2770.268,3197.556c0.003-1.069,0.094-2.151,0.389-3.236
				c17.371-63.762,98.331-102.155,98.331-102.155l31.738,3.092c17.209,56.814,14.206,91.404,10.979,106.774
				c-0.088,0.431-0.228,0.839-0.351,1.256C2885.091,3205.134,2831.097,3205.646,2770.268,3197.556z"/>
			<path style="fill:#91B3FA;" d="M2911.354,3203.287c-1.512,5.125-5.391,9.063-10.279,9.996
				c-37.444,7.138-96.603-0.292-121.43-4.017c-5.478-0.821-9.395-5.975-9.378-11.71
				C2831.097,3205.646,2885.091,3205.134,2911.354,3203.287z"/>
			
				<linearGradient id="SVGID_00000160874044731266554850000007839400016112618415_" gradientUnits="userSpaceOnUse" x1="-3509.7258" y1="2907.3167" x2="-3537.1389" y2="3146.561" gradientTransform="matrix(-0.9998 -0.0189 -0.0189 0.9998 -576.1784 12.0052)">
				<stop  offset="0" style="stop-color:#FEBBBA"/>
				<stop  offset="1" style="stop-color:#FF928E"/>
			</linearGradient>
			<path style="fill:url(#SVGID_00000160874044731266554850000007839400016112618415_);" d="M2914.4,3048.159l-14.685,64.549
				c-1.076,4.729-4.793,8.217-9.219,8.548c-5.42,0.406-13.125,0.558-20.849-0.726c-6.926-1.151-11.628-8.3-10.254-15.85
				l10.443-57.363L2914.4,3048.159z"/>
			<path style="fill:#91B3FA;" d="M2632.572,3197.373c35.121-0.321,53.355-4.112,62.813-7.771c-0.043,3.491-0.13,7.043-0.313,10.722
				c-0.195,3.928-3.165,7.013-6.747,6.922l-192.712-4.884c-6.15-0.156-9.61-7.357-6.838-12.946
				C2514.007,3191.979,2578.28,3197.867,2632.572,3197.373z"/>
			<path style="fill:#7D97F4;" d="M2488.775,3189.415c0.242-0.487,0.451-0.983,0.791-1.439
				c17.469-23.461,61.717-70.002,147.769-88.925l41.121-0.522c0,0,17.698,32.152,16.929,91.073
				c-9.458,3.66-27.692,7.45-62.813,7.771C2578.28,3197.867,2514.007,3191.979,2488.775,3189.415z"/>
			
				<linearGradient id="SVGID_00000073681826730139419660000008720018663345170110_" gradientUnits="userSpaceOnUse" x1="-3286.4263" y1="2932.9094" x2="-3313.8389" y2="3172.1489" gradientTransform="matrix(-0.9998 -0.0189 -0.0189 0.9998 -576.1784 12.0052)">
				<stop  offset="0" style="stop-color:#FEBBBA"/>
				<stop  offset="1" style="stop-color:#FF928E"/>
			</linearGradient>
			<path style="fill:url(#SVGID_00000073681826730139419660000008720018663345170110_);" d="M2687.25,3036.392
				c-0.514,3.055-7.027,49.506-9.548,67.516c-0.598,4.278-3.768,7.541-7.694,7.934c-7.014,0.705-18.352,1.252-28.22-0.966
				c-5.323-1.198-9.096-6.404-8.983-12.375l1.38-73.081L2687.25,3036.392z"/>
			
				<linearGradient id="SVGID_00000041267559346612374080000003468170538518895777_" gradientUnits="userSpaceOnUse" x1="-3061.1589" y1="1365.8435" x2="-3613.5779" y2="3216.8074" gradientTransform="matrix(-0.9998 -0.0189 -0.0189 0.9998 -576.1784 12.0052)">
				<stop  offset="0" style="stop-color:#09005D"/>
				<stop  offset="1" style="stop-color:#1A0F91"/>
			</linearGradient>
			<path style="fill:url(#SVGID_00000041267559346612374080000003468170538518895777_);" d="M2740.004,2161.604
				c0,0-114.237,474.227-121.396,948.287c-0.129,8.643,65.977,16.268,67.49,8.309c15.437-81.242,117.201-610.396,164.05-684.079
				c0,0-1.057,466.36-14.62,678.34c-0.337,5.271,59.621,22.541,72.142,9.085c0.001,0.004,84.495-516.136,87.959-840.037
				c0.178-16.682-29.93-119.905-29.93-119.905H2740.004z"/>
			
				<linearGradient id="SVGID_00000054231313250725877130000006519490853581483198_" gradientUnits="userSpaceOnUse" x1="-2896.4495" y1="1656.0593" x2="-2898.2258" y2="1673.4518" gradientTransform="matrix(-1 0 0 1 -240.0142 0)">
				<stop  offset="0" style="stop-color:#FF928E"/>
				<stop  offset="1" style="stop-color:#FE7062"/>
			</linearGradient>
			<path style="fill:url(#SVGID_00000054231313250725877130000006519490853581483198_);" d="M2655.492,1657.132
				C2662.56,1648.077,2653.652,1675.531,2655.492,1657.132L2655.492,1657.132z"/>
			
				<linearGradient id="SVGID_00000099662729973698827510000008302093534564406187_" gradientUnits="userSpaceOnUse" x1="6436.6602" y1="-12926.0752" x2="6140.9429" y2="-12469.0566" gradientTransform="matrix(-1 0 0 1 -240.0142 0)">
				<stop  offset="0" style="stop-color:#FF928E"/>
				<stop  offset="1" style="stop-color:#FE7062"/>
			</linearGradient>
			<path style="fill:url(#SVGID_00000099662729973698827510000008302093534564406187_);" d="M2655.492,1657.132
				c0.171-1.712,0.433-3.809,0.812-6.382c124.973-86.644,309.781-38.104,381.424-27.702c23.491,3.411,44.808,15.426,59.987,33.678
				c36.499,43.887,99.155,133.789,106.57,240.896c-40.495,28.079-86.648,45.72-136.116,54.329
				c-4.124-23.115-11.732-47.912-23.709-74.44c-1.375,6.133-3.047,12.199-5.052,18.162
				c-53.831,159.955-81.912,251.294-82.38,282.157c-0.063,4.191-246.583-6.021-202.922-7.298
				c18.244-0.533-84.992-364.703-138.933-429.334C2611.969,1737.36,2662.56,1648.077,2655.492,1657.132z"/>
			
				<linearGradient id="SVGID_00000128456861178014667420000008837221804173455262_" gradientUnits="userSpaceOnUse" x1="-3449.1326" y1="1377.91" x2="-3553.8003" y2="1830.223" gradientTransform="matrix(-0.9998 -0.0189 -0.0189 0.9998 -576.1784 12.0052)">
				<stop  offset="0" style="stop-color:#FEBBBA"/>
				<stop  offset="1" style="stop-color:#FF928E"/>
			</linearGradient>
			<path style="fill:url(#SVGID_00000128456861178014667420000008837221804173455262_);" d="M2924.629,1491.537l10.398,131.873
				c0,0-74.47,20.905-127.61-18.113l40.119-118.917L2924.629,1491.537z"/>
			<g>
				
					<linearGradient id="SVGID_00000156550293452299949550000014620870485198761621_" gradientUnits="userSpaceOnUse" x1="-3131.1843" y1="1507.7053" x2="-3050.6973" y2="1378.0313" gradientTransform="matrix(-1 0 0 1 -240.0142 0)">
					<stop  offset="0" style="stop-color:#FEBBBA"/>
					<stop  offset="1" style="stop-color:#FF928E"/>
				</linearGradient>
				<path style="fill:url(#SVGID_00000156550293452299949550000014620870485198761621_);" d="M2841.539,1339.888
					c-1.814,1.644-77.97,144.463-77.97,144.463l82.471,41.75l92.291-124.639C2938.332,1401.463,2871.906,1312.365,2841.539,1339.888
					z"/>
				
					<linearGradient id="SVGID_00000008107900611260011250000001104196216630944645_" gradientUnits="userSpaceOnUse" x1="-3069.6021" y1="998.6354" x2="-3116.2346" y2="1633.5605" gradientTransform="matrix(-1 0 0 1 -240.0142 0)">
					<stop  offset="0" style="stop-color:#4F52FF"/>
					<stop  offset="1" style="stop-color:#4042E2"/>
				</linearGradient>
				<path style="fill:url(#SVGID_00000008107900611260011250000001104196216630944645_);" d="M2869.264,1370.463
					c18.499,2.712,28.285,23.145,32.177,33.802c1.411,3.869,0.965,8.15-1.22,11.641l-42.817,68.414
					c-0.651,1.037-1.418,1.972-2.33,2.79c-5.028,4.506-22.188,17.564-34.914-0.896c-10.848-15.734-21.033-30.044-32.123-36.077
					c-6.476-3.524-14.576-0.961-18.021,5.558c-7.095,13.427-20.864,40.809-29.682,66.853c-2.209,6.528,1.047,13.643,7.384,16.351
					c16.724,7.147,49.799,20.123,79.28,24.76c4.843,0.762,9.689-1.196,12.653-5.1c13.045-17.18,49.805-65.188,62.268-77.143
					c11.579-11.108,32.473-6.443,41.873-3.548c3.569,1.099,7.397,0.675,10.631-1.191c9.699-5.595,26.705-19.663,11.856-44.302
					c-3.691-6.126-1.599-14.155,4.451-17.973c10.839-6.841,22.706-19.84,12.041-41.459c-13.471-27.302-51.656-24.73-73.083-44.843
					c-10.562-9.914-20.942-20.947-34.661-25.596c-2.944-0.998-6.028-1.681-9.135-1.619c-13.481,0.272-33.892,22.489-34.81,35.908
					C2829.77,1355.955,2853.154,1368.101,2869.264,1370.463z"/>
				
					<linearGradient id="SVGID_00000140734352672419986170000010813348173597173128_" gradientUnits="userSpaceOnUse" x1="-3553.2056" y1="-3332.842" x2="-3404.2629" y2="-3485.6531" gradientTransform="matrix(-0.6715 -0.7409 -0.7409 0.6715 -1951.5724 1305.1805)">
					<stop  offset="0" style="stop-color:#FEBBBA"/>
					<stop  offset="1" style="stop-color:#FF928E"/>
				</linearGradient>
				<path style="fill:url(#SVGID_00000140734352672419986170000010813348173597173128_);" d="M2885.849,1506.534
					c0,0,16.851-46.422,37.259-44.321c20.408,2.1,36.111,22.767,10.347,45.18
					C2901.406,1535.272,2885.849,1506.534,2885.849,1506.534z"/>
			</g>
			
				<linearGradient id="SVGID_00000151532848791615940770000016156121475270588046_" gradientUnits="userSpaceOnUse" x1="3044.4551" y1="1783.9336" x2="3072.719" y2="1783.9336">
				<stop  offset="0" style="stop-color:#E1473D"/>
				<stop  offset="1" style="stop-color:#E9605A"/>
			</linearGradient>
			<path style="fill:url(#SVGID_00000151532848791615940770000016156121475270588046_);" d="M3051.43,1865.604
				c28.334-73.226,20.241-162.448,20.156-163.34l-7.44,0.707c0.082,0.876,7.999,88.386-19.691,159.933L3051.43,1865.604z"/>
			
				<linearGradient id="SVGID_00000144318829293342697410000012995393953353889681_" gradientUnits="userSpaceOnUse" x1="-2397.052" y1="1453.7906" x2="-3057.0886" y2="2293.1868" gradientTransform="matrix(-1 0 0 1 -240.0142 0)">
				<stop  offset="0" style="stop-color:#09005D"/>
				<stop  offset="1" style="stop-color:#1A0F91"/>
			</linearGradient>
			<path style="fill:url(#SVGID_00000144318829293342697410000012995393953353889681_);" d="M2853.973,2424.587
				c1.66,0.031,3.2-1.054,3.667-2.731c8.817-31.547,71.026-65.224,71.652-65.561c1.819-0.975,2.504-3.241,1.527-5.061
				c-0.977-1.819-3.231-2.506-5.061-1.528c-2.674,1.435-65.646,35.527-75.318,70.136c-0.556,1.988,0.607,4.051,2.594,4.605
				C2853.346,2424.537,2853.664,2424.581,2853.973,2424.587z"/>
			
				<linearGradient id="SVGID_00000183931934714937379980000001007222387143370378_" gradientUnits="userSpaceOnUse" x1="-2960.9563" y1="1493.4254" x2="-3513.3765" y2="3344.3938" gradientTransform="matrix(-1 0 0 1 -240.0142 0)">
				<stop  offset="0" style="stop-color:#09005D"/>
				<stop  offset="1" style="stop-color:#1A0F91"/>
			</linearGradient>
			<path style="fill:url(#SVGID_00000183931934714937379980000001007222387143370378_);" d="M3031.364,1924.095l-91.978-138.574
				c-0.658-0.992-1.77-1.588-2.96-1.588h-168.398c-2.763,0-5.32,1.459-6.726,3.838l-80.035,135.443
				c-1.389,2.35-1.883,5.122-1.392,7.807c31.684,96.204,62.334,190.876,60.13,236.945c57.396,44.839,158.374,35.47,227.31,14.844
				c3.547-60.109,33.12-154.716,65.241-252.699C3032.967,1928.028,3032.539,1925.865,3031.364,1924.095z"/>
			
				<linearGradient id="SVGID_00000062175872203876915780000001586112984862506403_" gradientUnits="userSpaceOnUse" x1="-3113.4761" y1="1447.9052" x2="-3665.8972" y2="3298.876" gradientTransform="matrix(-1 0 0 1 -240.0142 0)">
				<stop  offset="0" style="stop-color:#09005D"/>
				<stop  offset="1" style="stop-color:#1A0F91"/>
			</linearGradient>
			<path style="fill:url(#SVGID_00000062175872203876915780000001586112984862506403_);" d="M3000.149,1618.155l-61.818,177.645
				h-37.203l54.971-184.987c0.541-1.82,2.384-2.923,4.243-2.54l38.729,7.983C2999.931,1616.434,3000.438,1617.327,3000.149,1618.155
				z"/>
			
				<linearGradient id="SVGID_00000115499703062975891330000005799661578054812330_" gradientUnits="userSpaceOnUse" x1="-2957.4216" y1="1494.4803" x2="-3509.8394" y2="3345.4404" gradientTransform="matrix(-1 0 0 1 -240.0142 0)">
				<stop  offset="0" style="stop-color:#09005D"/>
				<stop  offset="1" style="stop-color:#1A0F91"/>
			</linearGradient>
			<path style="fill:url(#SVGID_00000115499703062975891330000005799661578054812330_);" d="M2788.412,1605.66l15.176,185.23
				l-34.332,4.213l-29.222-184.673c-0.212-1.337,0.751-2.573,2.099-2.697l43.968-4.017
				C2787.277,1603.609,2788.316,1604.482,2788.412,1605.66z"/>
			<g>
				
					<linearGradient id="SVGID_00000008122782143243760290000012593838165954599081_" gradientUnits="userSpaceOnUse" x1="5253.0112" y1="1250.2522" x2="4683.8384" y2="1879.9761" gradientTransform="matrix(1 0 0 1 -2237.6704 0)">
					<stop  offset="0" style="stop-color:#09005D"/>
					<stop  offset="1" style="stop-color:#1A0F91"/>
				</linearGradient>
				<path style="fill:url(#SVGID_00000008122782143243760290000012593838165954599081_);" d="M2794.431,1349.036
					c73.402-138.648,263.648-12.691,175.109,104.106C2903.71,1409.371,2829.324,1344.303,2794.431,1349.036z"/>
				
					<linearGradient id="SVGID_00000072959790516777280160000004609071480027301274_" gradientUnits="userSpaceOnUse" x1="4291.6006" y1="810.0876" x2="4477.269" y2="810.0876" gradientTransform="matrix(0.9854 0.1702 -0.1702 0.9854 -1361.0261 -177.5386)">
					<stop  offset="0" style="stop-color:#09005D"/>
					<stop  offset="1" style="stop-color:#1A0F91"/>
				</linearGradient>
				<path style="fill:url(#SVGID_00000072959790516777280160000004609071480027301274_);" d="M2799.229,1334.091
					c-148.396-7.553-26.241,47.466,108.904,76.832C2874.492,1375.213,2840.86,1348.597,2799.229,1334.091z"/>
			</g>
		</g>
	</g>
</g>
</svg>
